<?xml version="1.0" encoding="iso-8859-1"?>
<!-- Uploaded to: SVG Repo, www.svgrepo.com, Generator: SVG Repo Mixer Tools -->
<svg version="1.1" id="Layer_1" xmlns="http://www.w3.org/2000/svg" xmlns:xlink="http://www.w3.org/1999/xlink" 
	 viewBox="0 0 511.998 511.998" xml:space="preserve">
<path style="fill:#37A0BD;" d="M415.148,238.218c-49.161,0-89.015,39.853-89.015,89.015s39.853,89.015,89.015,89.015
	s89.015-39.853,89.015-89.015S464.31,238.218,415.148,238.218z M415.148,391.972c-35.754,0-64.738-28.984-64.738-64.739
	s28.984-64.738,64.738-64.738c35.754,0,64.739,28.984,64.739,64.738C479.886,362.987,450.902,391.972,415.148,391.972z"/>
<path style="fill:#64C1DF;" d="M415.148,238.218c-49.158,0-89.015,39.858-89.015,89.015h24.277
	c0-35.757,28.981-64.738,64.738-64.738c35.757,0,64.739,28.981,64.739,64.738h24.276
	C504.163,278.075,464.306,238.218,415.148,238.218z"/>
<path style="fill:#37A0BD;" d="M96.852,238.218c-49.161,0-89.015,39.853-89.015,89.015s39.853,89.015,89.015,89.015
	s89.015-39.853,89.015-89.015S146.013,238.218,96.852,238.218z M96.852,391.972c-35.754,0-64.738-28.984-64.738-64.739
	s28.984-64.738,64.738-64.738c35.754,0,64.739,28.984,64.739,64.738C161.59,362.987,132.606,391.972,96.852,391.972z"/>
<path style="fill:#64C1DF;" d="M96.852,238.218c-49.158,0-89.015,39.858-89.015,89.015h24.277c0-35.757,28.981-64.738,64.738-64.738
	c35.757,0,64.739,28.981,64.739,64.738h24.277C185.866,278.075,146.01,238.218,96.852,238.218z"/>
<rect x="209.857" y="163.773" style="fill:#DDB92E;" width="97.113" height="32.369"/>
<g>
	<rect x="209.857" y="163.773" style="fill:#F9D85C;" width="97.113" height="16.184"/>
	<circle style="fill:#F9D85C;" cx="277.577" cy="326.694" r="26.974"/>
	<path style="fill:#F9D85C;" d="M416.767,125.303h-81.135c-6.438,0-11.656-5.218-11.656-11.656l0,0
		c0-5.884,4.384-10.844,10.223-11.567l49.374-6.115C401.205,93.783,416.767,107.536,416.767,125.303L416.767,125.303z"/>
</g>
<path d="M415.148,230.381c-11.885,0-23.274,2.157-33.805,6.092l-4.797-10.256c39.533-15.047,84.896-5.641,115.071,24.545
	l11.084-11.081c-34.823-34.834-87.301-45.491-132.808-27.682l-14.989-32.046l21.827-46.81h47.87v-7.837
	c0-10.713-4.604-20.927-12.632-28.022c-8.028-7.095-18.729-10.404-29.364-9.093l-49.372,6.115
	c-9.748,1.207-17.098,9.523-17.098,19.345c0,10.748,8.745,19.493,19.493,19.493h23.809l-18.175,38.977h-26.467v-16.184H202.015
	v16.184h-24.183l13.131-28.16c2.702-5.798,2.263-12.479-1.173-17.872c-3.439-5.396-9.314-8.617-15.716-8.617h-58.341
	c-16.416,0-29.772,13.351-29.772,29.761c0,7.959,3.095,15.437,8.723,21.065c5.63,5.615,13.105,8.707,21.048,8.707h29.132V161.33
	h-29.132c-3.765,0-7.31-1.467-9.974-4.124c-2.659-2.659-4.124-6.203-4.124-9.975c0-7.768,6.325-14.087,14.099-14.087h58.341
	c1.416,0,2.173,0.857,2.498,1.367c0.324,0.509,0.78,1.553,0.185,2.827l-46.209,99.097c-10.499-3.909-21.852-6.05-33.697-6.05
	C43.447,230.386,0,273.833,0,327.237c0,53.405,43.448,96.852,96.852,96.852s96.852-43.448,96.852-96.852
	c0-35.995-19.739-67.463-48.96-84.157l5.723-12.272l95.907,80.484c-2.304,4.648-3.606,9.876-3.606,15.406
	c0,16.5,11.543,30.345,26.974,33.911v12.74h-8.348v15.673h24.021v-28.414c12.731-2.941,22.81-12.879,25.949-25.535h7.25
	c4.003,49.754,45.768,89.015,96.533,89.015c53.405,0,96.852-43.448,96.852-96.852C512,273.828,468.552,230.381,415.148,230.381z
	 M331.811,113.649c0-1.924,1.44-3.554,3.35-3.79l49.374-6.115c0.89-0.111,1.781-0.165,2.668-0.165c5.268,0,10.399,1.918,14.39,5.446
	c2.633,2.327,4.633,5.233,5.874,8.442h-71.836C333.525,117.467,331.811,115.754,331.811,113.649z M178.03,327.233
	c0,44.762-36.417,81.178-81.178,81.178c-44.762,0-81.178-36.417-81.178-81.178s36.417-81.178,81.178-81.178
	c9.479,0,18.577,1.649,27.042,4.649l-3.657,7.842c-7.344-2.507-15.203-3.888-23.385-3.888c-40.018,0-72.574,32.557-72.574,72.576
	c0,40.017,32.557,72.575,72.574,72.575s72.574-32.557,72.574-72.575c0-26.268-14.028-49.321-34.985-62.062l3.648-7.822
	C161.973,271.496,178.03,297.518,178.03,327.233z M105.199,327.233c0,4.603-3.745,8.348-8.348,8.348
	c-4.603,0-8.348-3.745-8.348-8.348c0-4.603,3.745-8.348,8.348-8.348C101.454,318.885,105.199,322.63,105.199,327.233z
	 M96.852,303.212c-13.245,0-24.021,10.776-24.021,24.021s10.776,24.021,24.021,24.021s24.021-10.776,24.021-24.021
	c0-6.764-2.814-12.879-7.328-17.249l14.217-30.488c15.626,10.153,25.992,27.752,25.992,47.737c0,31.375-25.526,56.902-56.901,56.902
	s-56.901-25.526-56.901-56.902c0-31.375,25.526-56.902,56.901-56.902c5.816,0,11.43,0.881,16.719,2.51L99.35,303.341
	C98.528,303.257,97.695,303.212,96.852,303.212z M217.689,171.606h81.434v16.695h-81.434L217.689,171.606L217.689,171.606z
	 M170.523,187.79h31.492v16.184h112.781V187.79h19.16L285.04,292.696c-2.405-0.528-4.9-0.814-7.461-0.814
	c-1.022,0-2.03,0.053-3.029,0.14l-3.937-12.117l7.94-2.577l-4.838-14.909l-22.854,7.416l8.784,27.035
	c-1.159,0.699-2.27,1.469-3.335,2.295l-98.985-83.068L170.523,187.79z M285.416,344.134v-16.902h-15.673v16.902
	c-6.652-3.001-11.301-9.682-11.301-17.441c0-10.552,8.585-19.137,19.137-19.137c10.552,0,19.137,8.585,19.137,19.137
	C296.717,334.452,292.068,341.133,285.416,344.134z M299.192,299.435l47.077-100.958l20.888,44.656
	c-27.025,15.482-45.914,43.614-48.541,76.264h-7C309.896,311.371,305.403,304.369,299.192,299.435z M392.447,335.07
	c3.257,9.408,12.2,16.184,22.701,16.184c13.245,0,24.021-10.776,24.021-24.021s-10.776-24.021-24.021-24.021
	c-0.853,0-1.695,0.046-2.526,0.134l-14.259-30.485c5.308-1.642,10.944-2.529,16.784-2.529c31.375,0,56.902,25.526,56.902,56.902
	c0,31.375-25.526,56.902-56.902,56.902c-28.716,0-52.517-21.386-56.348-49.065h33.647V335.07z M423.496,327.233
	c0,4.603-3.745,8.348-8.348,8.348s-8.348-3.745-8.348-8.348c0-4.603,3.745-8.348,8.348-8.348
	C419.751,318.885,423.496,322.63,423.496,327.233z M398.434,310.004c-2.673,2.593-4.744,5.8-5.987,9.392H358.8
	c2.308-16.676,11.865-31.057,25.382-39.863L398.434,310.004z M343.003,319.396h-8.648c2.539-26.381,17.758-49.102,39.472-61.999
	l3.658,7.82C358.68,276.681,345.479,296.454,343.003,319.396z M415.148,408.411c-42.118,0-76.837-32.243-80.793-73.341h8.648
	c3.921,36.345,34.775,64.739,72.145,64.739c40.017,0,72.575-32.557,72.575-72.575c0-40.018-32.557-72.575-72.575-72.575
	c-8.212,0-16.1,1.391-23.466,3.915l-3.667-7.839c8.49-3.021,17.62-4.68,27.134-4.68c44.762,0,81.178,36.417,81.178,81.178
	C496.327,371.995,459.91,408.411,415.148,408.411z"/>
</svg>