<?xml version="1.0" encoding="iso-8859-1"?>
<!-- Generator: Adobe Illustrator 19.0.0, SVG Export Plug-In . SVG Version: 6.00 Build 0)  -->
<svg version="1.1" id="Layer_1" xmlns="http://www.w3.org/2000/svg" xmlns:xlink="http://www.w3.org/1999/xlink" x="0px" y="0px"
	 viewBox="0 0 512 512" style="enable-background:new 0 0 512 512;" xml:space="preserve">
<polygon style="fill:#B3D8F4;" points="30.302,268.539 7.837,237.192 7.837,59.559 504.163,59.559 504.163,237.192 481.698,268.539 
	"/>
<polyline style="fill:#3D9AE2;" points="73.143,268.539 73.143,225.698 438.857,225.698 438.857,268.539 "/>
<path d="M0,51.722V239.71l26.277,36.665h459.446L512,239.71V51.722H0z M496.327,234.674l-18.654,26.028H34.327l-18.654-26.028
	V67.396h480.653V234.674z"/>
<polygon points="65.306,245.551 80.98,245.551 80.98,233.535 431.02,233.535 431.02,245.551 446.694,245.551 446.694,217.861 
	65.306,217.861 "/>
<rect x="49.11" y="140.539" width="417.959" height="15.673"/>
<rect x="122.253" y="184.947" width="344.816" height="15.673"/>
<g>
	<rect x="49.11" y="184.947" style="fill:#FFFFFF;" width="15.673" height="15.673"/>
	<rect x="85.682" y="184.947" style="fill:#FFFFFF;" width="15.673" height="15.673"/>
</g>
<path d="M232.475,382.529h0.015v-91.002h-15.673v90.432c0,6.049-4.921,10.971-10.971,10.971c-6.05,0-10.971-4.922-10.971-10.971
	c0-6.05,4.921-10.971,10.971-10.971v-15.673c-14.692,0-26.645,11.954-26.645,26.645c0,14.692,11.953,26.645,26.645,26.645
	C220.346,408.603,232.17,396.957,232.475,382.529z"/>
<path d="M306.155,355.313v15.673c6.05,0,10.971,4.921,10.971,10.971c0,6.049-4.921,10.971-10.971,10.971
	s-10.971-4.922-10.971-10.971v-90.432H279.51v91.002h0.015c0.306,14.429,12.13,26.074,26.63,26.074
	c14.691,0,26.645-11.953,26.645-26.645C332.8,367.266,320.846,355.313,306.155,355.313z"/>
<path d="M248.163,433.633c0,6.05-4.921,10.971-10.971,10.971c-6.05,0-10.971-4.921-10.971-10.971c0-6.05,4.921-10.971,10.971-10.971
	v-15.673c-14.692,0-26.645,11.954-26.645,26.645s11.953,26.645,26.645,26.645c14.501,0,26.325-11.646,26.63-26.074h0.015V328.098
	h-15.673V433.633z"/>
<rect x="49.11" y="96.131" width="381.388" height="15.673"/>
<rect x="451.396" y="96.131" width="15.673" height="15.673"/>
<rect x="248.163" y="291.527" width="15.673" height="15.673"/>
<g>
</g>
<g>
</g>
<g>
</g>
<g>
</g>
<g>
</g>
<g>
</g>
<g>
</g>
<g>
</g>
<g>
</g>
<g>
</g>
<g>
</g>
<g>
</g>
<g>
</g>
<g>
</g>
<g>
</g>
</svg>
