<?xml version="1.0" encoding="iso-8859-1"?>
<!-- Generator: Adobe Illustrator 19.0.0, SVG Export Plug-In . SVG Version: 6.00 Build 0)  -->
<svg version="1.1" id="Layer_1" xmlns="http://www.w3.org/2000/svg" xmlns:xlink="http://www.w3.org/1999/xlink" x="0px" y="0px"
	 viewBox="0 0 490.321 490.321" style="enable-background:new 0 0 490.321 490.321;" xml:space="preserve">
<g>
	<path style="fill:#71D1D1;" d="M444.354,279.637c4.231,0,7.661,3.43,7.661,7.661v45.968c0,4.231-3.43,7.661-7.661,7.661h-88.745
		v15.323H475v-91.936H355.609v15.322h88.745V279.637z"/>
	<path style="fill:#A0E0E0;" d="M355.609,356.25v-15.323H298.79c-4.231,0-7.661-3.43-7.661-7.661v-45.968
		c0-4.231,3.43-7.661,7.661-7.661h56.819v-15.322H206.855v22.983c0,4.232-3.43,7.661-7.661,7.661s-7.661-3.43-7.661-7.661v-22.983
		h-22.984v22.983c0,4.232-3.43,7.661-7.661,7.661c-4.232,0-7.661-3.43-7.661-7.661v-22.983h-9.301v91.936h211.683V356.25z
		 M191.532,317.943c0-4.231,3.43-7.661,7.661-7.661s7.661,3.43,7.661,7.661v7.661c0,4.232-3.43,7.661-7.661,7.661
		s-7.661-3.43-7.661-7.661V317.943z M160.887,310.282c4.231,0,7.661,3.43,7.661,7.661v7.661c0,4.232-3.43,7.661-7.661,7.661
		c-4.232,0-7.661-3.43-7.661-7.661v-7.661C153.226,313.712,156.655,310.282,160.887,310.282z"/>
	<rect x="398.762" y="294.959" style="fill:#FBB03B;" width="37.931" height="30.646"/>
	<rect x="335.559" y="294.959" style="fill:#FCC062;" width="63.203" height="30.646"/>
	<rect x="306.451" y="294.959" style="fill:#FDD089;" width="29.108" height="30.646"/>
	<path style="fill:#D0F0F0;" d="M143.925,264.314h-13.683v22.983c0,4.232-3.43,7.661-7.661,7.661s-7.661-3.43-7.661-7.661v-22.983
		H91.935v22.983c0,4.232-3.43,7.661-7.661,7.661s-7.661-3.43-7.661-7.661v-22.983H15.322v91.936h128.603V264.314z M91.935,325.604
		c0,4.232-3.43,7.661-7.661,7.661s-7.661-3.43-7.661-7.661v-7.661c0-4.231,3.43-7.661,7.661-7.661s7.661,3.43,7.661,7.661V325.604z
		 M130.242,325.604c0,4.232-3.43,7.661-7.661,7.661s-7.661-3.43-7.661-7.661v-7.661c0-4.231,3.43-7.661,7.661-7.661
		c4.232,0,7.661,3.43,7.661,7.661V325.604z"/>
	<path d="M482.661,248.992H355.609H143.925H7.661c-4.231,0-7.661,3.43-7.661,7.661v107.258c0,4.231,3.43,7.661,7.661,7.661h30.645
		v15.322c0,4.231,3.43,7.661,7.661,7.661s7.661-3.43,7.661-7.661v-15.322h383.064v15.322c0,4.231,3.43,7.661,7.661,7.661
		c4.232,0,7.661-3.43,7.661-7.661v-15.322h30.646c4.231,0,7.661-3.43,7.661-7.661V256.653
		C490.322,252.421,486.893,248.992,482.661,248.992z M15.322,264.314h61.291v22.983c0,4.232,3.43,7.661,7.661,7.661
		s7.661-3.43,7.661-7.661v-22.983h22.984v22.983c0,4.232,3.43,7.661,7.661,7.661c4.232,0,7.661-3.43,7.661-7.661v-22.983h13.683
		h9.301v22.983c0,4.232,3.43,7.661,7.661,7.661s7.661-3.43,7.661-7.661v-22.983h22.984v22.983c0,4.232,3.43,7.661,7.661,7.661
		s7.661-3.43,7.661-7.661v-22.983h148.755H475v91.936H355.609H143.925H15.322V264.314z"/>
	<path style="fill:#FFFFFF;" d="M84.274,310.282c-4.231,0-7.661,3.43-7.661,7.661v7.661c0,4.232,3.43,7.661,7.661,7.661
		s7.661-3.43,7.661-7.661v-7.661C91.935,313.712,88.505,310.282,84.274,310.282z"/>
	<path style="fill:#FFFFFF;" d="M122.58,310.282c-4.231,0-7.661,3.43-7.661,7.661v7.661c0,4.232,3.43,7.661,7.661,7.661
		c4.232,0,7.661-3.43,7.661-7.661v-7.661C130.242,313.712,126.812,310.282,122.58,310.282z"/>
	<path style="fill:#FFFFFF;" d="M160.887,333.266c4.231,0,7.661-3.43,7.661-7.661v-7.661c0-4.231-3.43-7.661-7.661-7.661
		c-4.232,0-7.661,3.43-7.661,7.661v7.661C153.226,329.836,156.655,333.266,160.887,333.266z"/>
	<path style="fill:#FFFFFF;" d="M199.193,333.266c4.231,0,7.661-3.43,7.661-7.661v-7.661c0-4.231-3.43-7.661-7.661-7.661
		s-7.661,3.43-7.661,7.661v7.661C191.532,329.836,194.962,333.266,199.193,333.266z"/>
	<path d="M452.016,333.266v-45.968c0-4.231-3.43-7.661-7.661-7.661H355.61h-56.82c-4.231,0-7.661,3.43-7.661,7.661v45.968
		c0,4.231,3.43,7.661,7.661,7.661h56.819h88.745C448.585,340.927,452.016,337.497,452.016,333.266z M436.693,325.604h-37.931
		h-63.203h-29.108v-30.646h29.108h63.203h37.931V325.604z"/>
	<path d="M68.952,241.329c4.232,0,7.661-3.43,7.661-7.661V103.427c0-4.231-3.43-7.661-7.661-7.661s-7.661,3.43-7.661,7.661v130.241
		C61.291,237.899,64.72,241.329,68.952,241.329z"/>
	<path d="M421.371,241.329c4.231,0,7.661-3.43,7.661-7.661V103.427c0-4.231-3.43-7.661-7.661-7.661c-4.232,0-7.661,3.43-7.661,7.661
		v130.241C413.71,237.899,417.139,241.329,421.371,241.329z"/>
</g>
<g>
</g>
<g>
</g>
<g>
</g>
<g>
</g>
<g>
</g>
<g>
</g>
<g>
</g>
<g>
</g>
<g>
</g>
<g>
</g>
<g>
</g>
<g>
</g>
<g>
</g>
<g>
</g>
<g>
</g>
</svg>
