<?xml version="1.0" encoding="iso-8859-1"?>
<!-- Generator: Adobe Illustrator 19.0.0, SVG Export Plug-In . SVG Version: 6.00 Build 0)  -->
<svg version="1.1" id="Layer_1" xmlns="http://www.w3.org/2000/svg" xmlns:xlink="http://www.w3.org/1999/xlink" x="0px" y="0px"
	 viewBox="0 0 512.001 512.001" style="enable-background:new 0 0 512.001 512.001;" xml:space="preserve">
<path style="fill:#FFD311;" d="M256.001,407.25c13.169,0,23.943,10.774,23.943,23.943c0,13.169-10.774,23.943-23.943,23.943
	c-13.169,0-23.943-10.774-23.943-23.943C232.058,418.024,242.832,407.25,256.001,407.25z"/>
<path style="fill:#445764;" d="M256.001,78.037c16.521,0,29.929,13.408,29.929,29.929s-13.408,29.929-29.929,29.929
	s-29.929-13.408-29.929-29.929S239.48,78.037,256.001,78.037z"/>
<path style="fill:#E7ECED;" d="M34.529,215.708L256.001,12.194l221.471,203.514h-35.914H70.443H34.529z M256.001,137.894
	c16.521,0,29.929-13.408,29.929-29.929s-13.408-29.929-29.929-29.929s-29.929,13.408-29.929,29.929S239.48,137.894,256.001,137.894z
	"/>
<path style="fill:#B2B6B8;" d="M226.072,107.966c0-16.474,13.335-29.839,29.792-29.914V12.319L34.529,215.708h35.914h185.421V137.88
	C239.407,137.803,226.072,124.439,226.072,107.966z"/>
<path style="fill:#445764;" d="M70.443,503.021V215.707h371.114v287.314H70.443z M279.943,431.193
	c0-13.169-10.774-23.943-23.943-23.943c-13.169,0-23.943,10.774-23.943,23.943c0,13.169,10.774,23.943,23.943,23.943
	C269.169,455.136,279.943,444.361,279.943,431.193z"/>
<path d="M450.536,224.687h49.976L256.001,0L11.489,224.687h49.976v269.357H22.558v17.957h466.886v-17.957h-38.907V224.687z
	 M57.569,206.73l26.056-23.943h262.161V164.83h-242.62L256.001,24.387l198.431,182.342H57.569V206.73z M79.422,272.573h62.85
	v-17.957h-62.85v-29.929h353.157v29.929h-62.85v17.957h62.85v221.471H79.422L79.422,272.573L79.422,272.573z"/>
<path d="M256.001,69.058c-21.453,0-38.907,17.454-38.907,38.907s17.454,38.907,38.907,38.907c21.454,0,38.907-17.454,38.907-38.907
	S277.455,69.058,256.001,69.058z M256.001,128.916c-11.551,0-20.95-9.399-20.95-20.95s9.399-20.95,20.95-20.95
	s20.95,9.399,20.95,20.95S267.552,128.916,256.001,128.916z"/>
<path d="M256.001,254.616c-46.363,0-77.054,20.961-94.638,38.544c-18.995,18.995-27.045,38.009-27.379,38.809l16.576,6.908
	c0.277-0.663,28.516-66.304,105.441-66.304c32.033,0,59.436,11.033,81.446,32.795c16.7,16.509,23.931,33.361,23.994,33.509
	l16.576-6.908c-0.333-0.8-8.384-19.815-27.377-38.809C333.055,275.575,302.362,254.616,256.001,254.616z"/>
<g>
	<path style="fill:#FFFFFF;" d="M256.001,302.501c-32.146,0-52.274,14.604-63.5,26.855c-12.125,13.233-16.662,26.613-16.849,27.176
		l17.028,5.702c0.583-1.706,14.849-41.777,63.32-41.777c48.736,0,64.81,40.375,65.457,42.059l16.814-6.305
		C337.449,354.019,317.422,302.501,256.001,302.501z"/>
	<path style="fill:#FFFFFF;" d="M256.001,350.386c-33.964,0-44.017,28.842-44.427,30.07l17.027,5.704
		c0.06-0.178,6.214-17.816,27.401-17.816c21.074,0,28.199,17.442,28.464,18.116l16.814-6.305
		C300.823,378.94,289.729,350.386,256.001,350.386z"/>
</g>
<path d="M256.001,398.271c-18.153,0-32.921,14.768-32.921,32.921s14.768,32.921,32.921,32.921c18.152,0,32.921-14.768,32.921-32.921
	C288.922,413.041,274.153,398.271,256.001,398.271z M256.001,446.157c-8.252,0-14.964-6.712-14.964-14.964
	c0-8.252,6.712-14.964,14.964-14.964c8.252,0,14.964,6.712,14.964,14.964C270.965,439.445,264.251,446.157,256.001,446.157z"/>
<rect x="100.368" y="452.149" width="23.943" height="17.957"/>
<g>
	<rect x="136.283" y="452.149" style="fill:#FFFFFF;" width="23.943" height="17.957"/>
	<rect x="100.368" y="416.235" style="fill:#FFFFFF;" width="23.943" height="17.957"/>
</g>
<rect x="387.683" y="452.149" width="23.943" height="17.957"/>
<g>
	<rect x="351.768" y="452.149" style="fill:#FFFFFF;" width="23.943" height="17.957"/>
	<rect x="387.683" y="416.235" style="fill:#FFFFFF;" width="23.943" height="17.957"/>
</g>
<g>
</g>
<g>
</g>
<g>
</g>
<g>
</g>
<g>
</g>
<g>
</g>
<g>
</g>
<g>
</g>
<g>
</g>
<g>
</g>
<g>
</g>
<g>
</g>
<g>
</g>
<g>
</g>
<g>
</g>
</svg>
