<?xml version="1.0" encoding="iso-8859-1"?>
<!-- Uploaded to: SVG Repo, www.svgrepo.com, Generator: SVG Repo Mixer Tools -->
<svg version="1.1" id="Layer_1" xmlns="http://www.w3.org/2000/svg" xmlns:xlink="http://www.w3.org/1999/xlink" 
	 viewBox="0 0 512 512" xml:space="preserve">
<rect x="77.663" y="11.506" style="fill:#2196F3;" width="356.674" height="488.989"/>
<circle style="fill:#ECF0F1;" cx="256" cy="338.553" r="103.551"/>
<circle style="fill:#FFC107;" cx="256" cy="126.562" r="51.775"/>
<circle style="fill:#00BCD4;" cx="256" cy="338.553" r="43.146"/>
<g>
	<path style="fill:#231F20;" d="M381.028,171.411c-6.355,0-11.506,5.152-11.506,11.506v18.792c0,6.353,5.151,11.506,11.506,11.506
		c6.355,0,11.506-5.152,11.506-11.506v-18.792C392.534,176.563,387.382,171.411,381.028,171.411z"/>
	<path style="fill:#231F20;" d="M434.337,0H77.663c-6.355,0-11.506,5.152-11.506,11.506v488.989c0,6.353,5.151,11.506,11.506,11.506
		h356.674c6.355,0,11.506-5.152,11.506-11.506V11.506C445.843,5.152,440.692,0,434.337,0z M422.831,488.989h-30.298v-28.787
		c0-6.353-5.151-11.506-11.506-11.506c-6.355,0-11.506,5.152-11.506,11.506v28.787H142.478v-28.787
		c0-6.353-5.151-11.506-11.506-11.506c-6.355,0-11.506,5.152-11.506,11.506v28.787H89.169V23.011h30.298v99.693
		c0,6.353,5.151,11.506,11.506,11.506c6.355,0,11.506-5.152,11.506-11.506V23.011h227.044v99.693
		c0,6.353,5.151,11.506,11.506,11.506c6.355,0,11.506-5.152,11.506-11.506V23.011h30.299V488.989z"/>
	<path style="fill:#231F20;" d="M256,223.497c-63.442,0-115.056,51.613-115.056,115.056S192.558,453.609,256,453.609
		s115.056-51.613,115.056-115.056S319.442,223.497,256,223.497z M256,430.598c-50.754,0-92.045-41.291-92.045-92.045
		s41.291-92.045,92.045-92.045s92.045,41.291,92.045,92.045S306.754,430.598,256,430.598z"/>
	<path style="fill:#231F20;" d="M256,189.843c34.893,0,63.281-28.388,63.281-63.281S290.893,63.281,256,63.281
		s-63.281,28.388-63.281,63.281S221.107,189.843,256,189.843z M256,86.292c22.205,0,40.27,18.065,40.27,40.27
		s-18.065,40.27-40.27,40.27s-40.27-18.065-40.27-40.27S233.795,86.292,256,86.292z"/>
	<path style="fill:#231F20;" d="M256,283.901c-30.134,0-54.652,24.517-54.652,54.652c0,30.134,24.517,54.652,54.652,54.652
		s54.652-24.517,54.652-54.652C310.652,308.418,286.134,283.901,256,283.901z M256,370.193c-17.447,0-31.64-14.194-31.64-31.64
		c0-17.446,14.193-31.64,31.64-31.64s31.64,14.194,31.64,31.64C287.64,355.999,273.447,370.193,256,370.193z"/>
	<path style="fill:#231F20;" d="M142.478,182.916c0-6.353-5.151-11.506-11.506-11.506c-6.355,0-11.506,5.152-11.506,11.506v18.792
		c0,6.353,5.151,11.506,11.506,11.506c6.355,0,11.506-5.152,11.506-11.506V182.916z"/>
</g>
</svg>