<!DOCTYPE svg PUBLIC "-//W3C//DTD SVG 1.1//EN" "http://www.w3.org/Graphics/SVG/1.1/DTD/svg11.dtd">
<!-- Uploaded to: SVG Repo, www.svgrepo.com, Transformed by: SVG Repo Mixer Tools -->
<svg width="800px" height="800px" viewBox="0 0 32 32" fill="none" xmlns="http://www.w3.org/2000/svg">
<g id="SVGRepo_bgCarrier" stroke-width="0"/>
<g id="SVGRepo_tracerCarrier" stroke-linecap="round" stroke-linejoin="round"/>
<g id="SVGRepo_iconCarrier"> <g clip-path="url(#clip0_901_3105)"> <path d="M19 8C19 6.34 17.66 5 16 5C14.34 5 13 6.34 13 8C13 9.66 14.34 11 16 11C17.66 11 19 9.66 19 8ZM22 21C22 17.69 19.31 15 16 15C12.69 15 10 17.69 10 21C10 24.31 12.69 27 16 27C19.31 27 22 24.31 22 21ZM26 2V30C26 30.55 25.55 31 25 31H7C6.45 31 6 30.55 6 30V2C6 1.45 6.45 1 7 1H25C25.55 1 26 1.45 26 2Z" fill="#e6ce9e"/> <path d="M16 15C19.31 15 22 17.69 22 21C22 24.31 19.31 27 16 27C12.69 27 10 24.31 10 21C10 17.69 12.69 15 16 15ZM16 5C17.66 5 19 6.34 19 8C19 9.66 17.66 11 16 11C14.34 11 13 9.66 13 8C13 6.34 14.34 5 16 5Z" fill="#d20f0f"/> <path d="M16 20C16.55 20 17 20.45 17 21C17 21.55 16.55 22 16 22C15.45 22 15 21.55 15 21C15 20.45 15.45 20 16 20Z" fill="#e6ce9e"/> <path d="M29.5165 19.5547C30.4325 18.6487 30.9995 17.3907 30.9995 15.9997C30.9995 14.6187 30.4405 13.3687 29.5355 12.4647M2.48331 12.4648C1.56731 13.3708 1.00031 14.6288 1.00031 16.0198C1.00031 17.4008 1.55931 18.6508 2.46431 19.5548M25.9999 30C25.9999 30.553 25.5529 31 24.9999 31H6.99991C6.44691 31 5.99991 30.553 5.99991 30V2C5.99991 1.447 6.44691 1 6.99991 1H24.9999C25.5529 1 25.9999 1.447 25.9999 2V30ZM21.9999 21C21.9999 17.686 19.3139 15 15.9999 15C12.6859 15 9.99991 17.686 9.99991 21C9.99991 24.314 12.6859 27 15.9999 27C19.3139 27 21.9999 24.314 21.9999 21ZM18.9999 8C18.9999 6.344 17.6559 5 15.9999 5C14.3439 5 12.9999 6.344 12.9999 8C12.9999 9.656 14.3439 11 15.9999 11C17.6559 11 18.9999 9.656 18.9999 8ZM16.9999 21C16.9999 20.447 16.5529 20 15.9999 20C15.4469 20 14.9999 20.447 14.9999 21C14.9999 21.553 15.4469 22 15.9999 22C16.5529 22 16.9999 21.553 16.9999 21Z" stroke="#000000" stroke-width="2" stroke-linecap="round" stroke-linejoin="round"/> </g> <defs> <clipPath id="clip0_901_3105"> <rect width="32" height="32" fill="white"/> </clipPath> </defs> </g>
</svg>