<?xml version="1.0" encoding="iso-8859-1"?>
<!-- Generator: Adobe Illustrator 19.0.0, SVG Export Plug-In . SVG Version: 6.00 Build 0)  -->
<svg version="1.1" id="Layer_1" xmlns="http://www.w3.org/2000/svg" xmlns:xlink="http://www.w3.org/1999/xlink" x="0px" y="0px"
	 viewBox="0 0 512 512" style="enable-background:new 0 0 512 512;" xml:space="preserve">
<path d="M383.32,227.892H512v219.472c0,11.664-9.544,21.2-21.2,21.2h-86.28c-11.664,0-21.2-9.544-21.2-21.2L383.32,227.892
	L383.32,227.892z"/>
<path style="opacity:0.25;fill:#FFFFFF;enable-background:new    ;" d="M403.136,227.892l85.952,240.672h1.712
	c11.664,0,21.2-9.544,21.2-21.2V227.892H403.136z"/>
<g>
	<path style="fill:#333333;" d="M512,227.892H383.32V64.628c0-11.664,9.544-21.2,21.2-21.2h86.28c11.664,0,21.2,9.544,21.2,21.2
		V227.892z"/>
	<path style="fill:#333333;" d="M266.256,468.572H63.608C28.624,468.572,0,439.948,0,404.964V203.22
		c0-34.984,28.624-63.608,63.608-63.608h202.648c34.984,0,63.608,28.624,63.608,63.608v201.744
		C329.864,439.948,301.24,468.572,266.256,468.572z"/>
</g>
<path d="M137.312,255.02v18.872h17.104v9.096h-17.104v35.424c0,8.144,2.304,12.768,8.96,12.768c3.12,0,5.424-0.408,6.92-0.816
	l0.544,8.952c-2.312,0.96-5.976,1.632-10.592,1.632c-5.56,0-10.04-1.768-12.888-5.016c-3.392-3.536-4.616-9.368-4.616-17.112
	v-35.832h-10.176v-9.096h10.176V258.14L137.312,255.02z"/>
<path d="M173.696,273.9l12.896,36.92c2.168,5.976,3.936,11.4,5.296,16.824h0.408c1.496-5.424,3.392-10.848,5.568-16.824l12.76-36.92
	h12.488l-25.784,65.696h-11.4L160.944,273.9H173.696z"/>
<circle cx="419.76" cy="199.988" r="21.432"/>
<path style="fill:#666666;" d="M419.76,222.54c-12.44,0-22.56-10.12-22.56-22.56s10.12-22.56,22.56-22.56s22.56,10.12,22.56,22.56
	S432.192,222.54,419.76,222.54z M419.76,179.676c-11.192,0-20.312,9.12-20.312,20.312s9.12,20.312,20.312,20.312
	s20.312-9.12,20.312-20.312C440.064,188.796,430.952,179.676,419.76,179.676z"/>
<circle cx="419.76" cy="254.748" r="21.432"/>
<path style="fill:#666666;" d="M419.76,277.3c-12.44,0-22.56-10.12-22.56-22.56s10.12-22.56,22.56-22.56s22.56,10.12,22.56,22.56
	C442.312,267.18,432.192,277.3,419.76,277.3z M419.76,234.436c-11.192,0-20.312,9.12-20.312,20.312s9.12,20.312,20.312,20.312
	s20.312-9.12,20.312-20.312C440.064,243.556,430.952,234.436,419.76,234.436z"/>
<circle cx="419.76" cy="309.508" r="21.432"/>
<path style="fill:#666666;" d="M419.76,332.068c-12.44,0-22.56-10.12-22.56-22.56s10.12-22.56,22.56-22.56s22.56,10.12,22.56,22.56
	S432.192,332.068,419.76,332.068z M419.76,289.196c-11.192,0-20.312,9.12-20.312,20.312s9.12,20.312,20.312,20.312
	s20.312-9.12,20.312-20.312S430.952,289.196,419.76,289.196z"/>
<circle cx="475.28" cy="199.988" r="21.432"/>
<path style="fill:#666666;" d="M475.288,222.54c-12.44,0-22.544-10.12-22.544-22.56s10.112-22.56,22.544-22.56
	s22.56,10.12,22.56,22.56S487.728,222.54,475.288,222.54z M475.288,179.676c-11.192,0-20.296,9.12-20.296,20.312
	s9.104,20.312,20.296,20.312s20.312-9.12,20.312-20.312C495.6,188.796,486.48,179.676,475.288,179.676z"/>
<path d="M475.288,329.82c-11.92,0-21.624-9.704-21.624-21.632v-52.112c0-11.928,9.704-21.632,21.624-21.632
	c11.928,0,21.632,9.704,21.632,21.632v52.112C496.92,320.116,487.224,329.82,475.288,329.82z"/>
<path style="fill:#666666;" d="M475.296,235.572c11.304,0,20.496,9.192,20.496,20.496v52.112c0,11.304-9.192,20.496-20.496,20.496
	c-11.304,0-20.496-9.192-20.496-20.496v-52.112C454.8,244.764,463.992,235.572,475.296,235.572 M475.296,233.316
	c-12.512,0-22.752,10.24-22.752,22.752v52.112c0,12.512,10.24,22.752,22.752,22.752s22.752-10.24,22.752-22.752v-52.112
	C498.048,243.556,487.808,233.316,475.296,233.316L475.296,233.316z"/>
<g>
	<path style="fill:#FFFFFF;" d="M483.264,204.02h-15.928v-9.528h15.928V204.02z M468.456,202.892h13.68v-7.28h-13.68V202.892z"/>
	<rect x="472.32" y="205.588" style="fill:#FFFFFF;" width="6.008" height="1.128"/>
	<rect x="474.72" y="247.06" style="fill:#FFFFFF;" width="1.128" height="10.72"/>
	<rect x="469.936" y="251.86" style="fill:#FFFFFF;" width="10.728" height="1.128"/>
	<rect x="469.936" y="310.996" style="fill:#FFFFFF;" width="10.728" height="1.128"/>
	<rect x="425.28" y="305.836" style="fill:#FFFFFF;" width="1.128" height="7.28"/>
	<rect x="419.12" y="259.548" style="fill:#FFFFFF;" width="1.128" height="3.336"/>
	<rect x="421.76" y="305.836" style="fill:#FFFFFF;" width="1.128" height="7.28"/>
	<polygon style="fill:#FFFFFF;" points="412.144,305.532 419.024,309.508 412.144,313.484 	"/>
	<rect x="416.72" y="262.268" style="fill:#FFFFFF;" width="5.776" height="1.128"/>
	<path style="fill:#FFFFFF;" d="M419.744,257.828L419.744,257.828c-1.152,0-2.096-0.944-2.096-2.096v-6.976
		c0-1.152,0.944-2.096,2.096-2.096l0,0c1.152,0,2.096,0.944,2.096,2.096v6.976C421.84,256.884,420.896,257.828,419.744,257.828z"/>
	<path style="fill:#FFFFFF;" d="M419.76,260.204c-2.44,0-4.424-1.984-4.424-4.424v-2.416h1.128v2.416
		c0,1.816,1.48,3.296,3.296,3.296s3.304-1.48,3.304-3.296v-2.416h1.128v2.416C424.192,258.22,422.208,260.204,419.76,260.204z"/>
	<path style="fill:#FFFFFF;" d="M413.064,200.428c-0.056-0.904-0.112-1.992-0.096-2.808h-0.032
		c-0.224,0.768-0.488,1.576-0.816,2.472l-1.144,3.152h-0.64l-1.056-3.088c-0.312-0.928-0.56-1.768-0.752-2.536h-0.024
		c-0.008,0.816-0.064,1.904-0.12,2.88l-0.176,2.792h-0.792l0.456-6.504h1.072l1.112,3.152c0.264,0.792,0.488,1.512,0.648,2.184
		h0.032c0.168-0.648,0.4-1.368,0.68-2.184l1.16-3.152h1.072l0.408,6.504h-0.824L413.064,200.428z"/>
	<path style="fill:#FFFFFF;" d="M418.688,200.236h-2.528v2.336h2.808v0.704h-3.664v-6.504h3.52v0.704h-2.664v2.048h2.528
		L418.688,200.236L418.688,200.236z"/>
	<path style="fill:#FFFFFF;" d="M420.056,203.284v-6.504h0.928l2.08,3.296c0.472,0.76,0.848,1.448,1.16,2.104l0.024-0.008
		c-0.08-0.856-0.088-1.656-0.088-2.672v-2.72h0.784v6.504h-0.848l-2.064-3.296c-0.456-0.728-0.896-1.464-1.216-2.168l-0.032,0.008
		c0.048,0.816,0.064,1.6,0.064,2.68v2.776H420.056z"/>
	<path style="fill:#FFFFFF;" d="M427.232,196.772v3.848c0,1.464,0.64,2.08,1.512,2.08c0.968,0,1.584-0.64,1.584-2.08v-3.848h0.84
		v3.792c0,1.992-1.048,2.824-2.456,2.824c-1.32,0-2.328-0.768-2.328-2.776v-3.84L427.232,196.772L427.232,196.772z"/>
</g>
<path d="M449.664,64.804h-5.512c-1.176,0-2.144-0.968-2.144-2.144l0,0c0-1.176,0.968-2.144,2.144-2.144h5.512
	c1.176,0,2.144,0.968,2.144,2.144l0,0C451.808,63.844,450.848,64.804,449.664,64.804z"/>
<g>
</g>
<g>
</g>
<g>
</g>
<g>
</g>
<g>
</g>
<g>
</g>
<g>
</g>
<g>
</g>
<g>
</g>
<g>
</g>
<g>
</g>
<g>
</g>
<g>
</g>
<g>
</g>
<g>
</g>
</svg>
