<?xml version="1.0" encoding="iso-8859-1"?>
<!-- Generator: Adobe Illustrator 19.0.0, SVG Export Plug-In . SVG Version: 6.00 Build 0)  -->
<svg version="1.1" id="Layer_1" xmlns="http://www.w3.org/2000/svg" xmlns:xlink="http://www.w3.org/1999/xlink" x="0px" y="0px"
	 viewBox="0 0 512 512" style="enable-background:new 0 0 512 512;" xml:space="preserve">
<rect x="64" y="271.995" style="fill:#E7ECED;" width="159.996" height="128.005"/>
<path style="fill:#AFB6BB;" d="M26.667,442.666v-32c0-5.867,4.8-10.667,10.667-10.667H64h160h106.666H448h26.666
	c5.867,0,10.667,4.8,10.667,10.667v74.666H26.667V442.666z"/>
<g>
	<rect x="330.666" y="362.667" style="fill:#595E62;" width="117.331" height="37.333"/>
	<path style="fill:#595E62;" d="M186.667,186.666c0,0,0,32,0,37.333c0,5.333-5.334,5.334-5.334,5.334s-82.773,0-85.333,0
		c-5.333,0-5.333-5.334-5.333-5.334v-37.333H186.667z"/>
</g>
<g>
	<path style="fill:#E7ECED;" d="M117.334,58.667c11.733,0,21.333,9.6,21.333,21.333c0,11.733-9.6,21.333-21.333,21.333
		S96.001,91.733,96.001,80C96.001,68.267,105.6,58.667,117.334,58.667z"/>
	<path style="fill:#E7ECED;" d="M389.333,197.333c11.733,0,21.333,9.6,21.333,21.333c0,11.733-9.6,21.333-21.333,21.333
		C377.6,240,368,230.4,368,218.666C368,206.933,377.6,197.333,389.333,197.333z"/>
	<path style="fill:#E7ECED;" d="M448,122.667c0,0-42.667,0-69.333,0S352,96.001,352,96.001V26.666h85.333
		c5.867,0,10.667,4.8,10.667,10.667V122.667z"/>
</g>
<path style="fill:#7E8488;" d="M448,362.667H330.667V186.666h-21.333v-160H352V96c0,0,0,26.666,26.666,26.666s69.333,0,69.333,0
	L448,362.667L448,362.667z M410.667,218.666c0-11.733-9.6-21.333-21.333-21.333c-11.733,0-21.333,9.6-21.333,21.333
	C368,230.4,377.6,240,389.333,240C401.066,240,410.667,230.4,410.667,218.666z"/>
<path style="fill:#AFB6BB;" d="M64,26.666h245.333v160H186.667H90.667H53.334V37.333C53.334,31.467,58.133,26.666,64,26.666z
	 M117.334,58.667c-11.733,0-21.333,9.6-21.333,21.333c0,11.733,9.6,21.333,21.333,21.333s21.333-9.6,21.333-21.333
	C138.666,68.267,129.067,58.667,117.334,58.667z"/>
<path style="fill:#6A6F72;" d="M389.333,122.667v74.667c11.733,0,21.333,9.6,21.333,21.333s-9.599,21.333-21.333,21.333v122.666H448
	v-240C448,122.667,415.359,122.667,389.333,122.667z"/>
<rect x="26.667" y="442.665" style="fill:#939A9F;" width="458.671" height="42.667"/>
<path d="M493.347,477.319v-66.653c0-10.3-8.38-18.679-18.68-18.679h-18.653V197.333h-16.027v157.319H338.68V178.654H61.347V37.334
	c0-1.438,1.216-2.653,2.653-2.653h74.669V18.654H64c-10.301,0-18.68,8.38-18.68,18.68v157.347h37.333v29.318
	c0,6.471,4.678,13.348,13.347,13.348h34.653v13.32h16.027v-13.32h34.653c6.471,0,13.347-4.678,13.347-13.348v-29.318h127.973
	v197.305h-90.639V370.29c33.111-3.187,45.82-25.881,47.891-38.306l0.11-0.654v-67.344H55.987v128H37.333
	c-10.3,0-18.679,8.38-18.679,18.679v66.653H0v16.027h512v-16.027H493.347z M178.653,221.319H98.68v-26.64h79.972V221.319z
	 M439.986,370.679v21.306H338.679v-21.306H439.986z M263.987,280.014v49.792c-0.422,1.675-2.054,7.06-6.615,12.283
	c-5.907,6.767-14.415,10.825-25.358,12.113v-74.188H263.987z M215.987,280.014v111.972H72.014v-63.973h77.319v-16.027H72.014
	v-31.972L215.987,280.014L215.987,280.014z M34.681,450.68h359.985v-16.027H34.681v-23.987c0-1.438,1.215-2.652,2.652-2.652h437.333
	c1.438,0,2.653,1.215,2.653,2.652v66.653H34.681V450.68z"/>
<path d="M117.334,50.653c-16.182,0-29.347,13.165-29.347,29.348c0,16.182,13.165,29.347,29.347,29.347s29.347-13.165,29.347-29.347
	C146.68,63.818,133.515,50.653,117.334,50.653z M117.334,93.32c-7.345,0-13.32-5.975-13.32-13.32c0-7.345,5.975-13.321,13.32-13.321
	c7.345,0,13.32,5.976,13.32,13.321C130.654,87.345,124.679,93.32,117.334,93.32z"/>
<path d="M418.68,218.666c0-16.182-13.165-29.347-29.347-29.347c-16.182,0-29.347,13.165-29.347,29.347s13.165,29.347,29.347,29.347
	C405.515,248.014,418.68,234.848,418.68,218.666z M376.013,218.666c0-7.345,5.975-13.32,13.32-13.32s13.32,5.975,13.32,13.32
	s-5.975,13.32-13.32,13.32C381.988,231.986,376.013,226.011,376.013,218.666z"/>
<rect x="173.32" y="53.334" style="fill:#FFFFFF;" width="16.027" height="106.667"/>
<rect x="215.985" y="53.334" width="16.027" height="106.667"/>
<rect x="258.649" y="53.334" style="fill:#FFFFFF;" width="16.027" height="106.667"/>
<rect x="301.314" y="53.334" width="16.027" height="106.667"/>
<rect x="85.33" y="141.318" style="fill:#FFFFFF;" width="26.667" height="16.027"/>
<rect x="128.005" y="141.318" width="26.666" height="16.027"/>
<rect x="357.335" y="269.324" style="fill:#FFFFFF;" width="26.666" height="16.027"/>
<rect x="394.668" y="269.324" width="26.667" height="16.027"/>
<rect x="410.663" y="434.651" style="fill:#FFFFFF;" width="37.333" height="16.027"/>
<path d="M343.986,96c0,13.941,9.236,34.681,34.681,34.681h61.32v50.65h16.027V37.334c0-10.301-8.38-18.68-18.68-18.68H165.336
	v16.027h178.649V96H343.986z M439.986,37.334v77.319h-61.32c-7.719,0-12.942-2.787-15.967-8.518
	C360.116,101.244,360.013,96,360.013,96V34.681h77.32C438.771,34.681,439.986,35.896,439.986,37.334z"/>
<rect x="159.996" y="311.988" width="26.666" height="16.027"/>
<g>
</g>
<g>
</g>
<g>
</g>
<g>
</g>
<g>
</g>
<g>
</g>
<g>
</g>
<g>
</g>
<g>
</g>
<g>
</g>
<g>
</g>
<g>
</g>
<g>
</g>
<g>
</g>
<g>
</g>
</svg>
