<?xml version="1.0" encoding="iso-8859-1"?>
<!-- Generator: Adobe Illustrator 19.0.0, SVG Export Plug-In . SVG Version: 6.00 Build 0)  -->
<svg version="1.1" id="Layer_1" xmlns="http://www.w3.org/2000/svg" xmlns:xlink="http://www.w3.org/1999/xlink" x="0px" y="0px"
	 viewBox="0 0 512 512" style="enable-background:new 0 0 512 512;" xml:space="preserve">
<path style="fill:#AFB6BB;" d="M8.604,428.971h167.074h161.684h167.074v53.895c0,0,0,10.779-16.168,10.779
	c-16.168,0-447.326,0-463.495,0S8.604,482.866,8.604,482.866S8.604,428.971,8.604,428.971z"/>
<polygon style="fill:#E7ECED;" points="321.193,364.297 337.362,428.971 175.677,428.971 191.846,364.297 "/>
<polygon style="fill:#AFB6BB;" points="191.846,364.297 78.666,364.297 94.834,267.287 412.814,267.287 434.372,364.297 
	321.193,364.297 "/>
<rect x="89.445" y="57.098" style="fill:#00B4D7;" width="334.147" height="177.853"/>
<path style="fill:#AFB6BB;" d="M57.108,267.287V30.15c0-5.928,4.851-10.779,10.779-10.779H445.15
	c5.928,0,10.779,4.851,10.779,10.779v237.137h-43.116H94.834H57.108z M423.593,57.098H89.446v177.853h334.147V57.098z"/>
<g>
	<polygon style="fill:#595E62;" points="455.93,267.287 504.435,428.971 337.362,428.971 321.193,364.297 434.372,364.297 
		412.814,267.287 	"/>
	<polygon style="fill:#595E62;" points="191.846,364.297 175.677,428.971 8.604,428.971 57.108,267.287 94.834,267.287 
		78.666,364.297 	"/>
</g>
<path style="fill:#00A4D4;" d="M109.145,57.098H89.445v177.853h158.557C179.989,197.94,128.892,133.846,109.145,57.098z"/>
<path d="M463.495,265.593V29.642c0-10.401-8.463-18.863-18.863-18.863H180.551v16.168h264.081c1.461,0,2.695,1.234,2.695,2.695
	v229.053H64.674V29.642c0-1.461,1.234-2.695,2.695-2.695h91.625V10.779H67.368c-10.401,0-18.863,8.463-18.863,18.863v235.951
	L0,427.277v55.08c0,0.9,0.176,5.623,3.638,10.24c2.95,3.933,8.922,8.623,20.615,8.623h167.074v-16.168H24.253
	c-4.595,0-7.745-1.176-8.084-3.003v-13.165h72.758v-16.168H16.168v-16.168h479.663v16.168h-72.758v16.168h72.758v13.474
	c0,0.027-0.857,2.695-8.084,2.695H223.665v16.168h264.082c19.896,0,24.253-13.617,24.253-18.863v-55.082L463.495,265.593z
	 M256,355.705H87.691l13.474-80.842H405.81l17.965,80.842H256z M180.972,371.874l-12.126,48.505H18.949l43.655-145.516h22.168
	l-16.168,97.01H180.972z M197.638,371.874H256h58.362l12.126,48.505H185.512L197.638,371.874z M331.028,371.874h112.903
	l-21.558-97.01h27.023l43.655,145.516H343.154L331.028,371.874z M16.168,482.358v-0.251
	C16.179,482.267,16.168,482.358,16.168,482.358z"/>
<rect x="196.716" y="452.716" style="fill:#FFFFFF;" width="118.568" height="16.168"/>
<rect x="331.453" y="452.716" width="21.558" height="16.168"/>
<rect x="158.989" y="452.716" width="21.558" height="16.168"/>
<rect x="137.432" y="291.032" style="fill:#FFFFFF;" width="21.558" height="16.168"/>
<rect x="169.768" y="291.032" width="21.558" height="16.168"/>
<rect x="353.01" y="291.032" width="21.558" height="16.168"/>
<rect x="320.674" y="291.032" width="21.558" height="16.168"/>
<rect x="288.337" y="291.032" style="fill:#FFFFFF;" width="21.558" height="16.168"/>
<rect x="256" y="291.032" width="21.558" height="16.168"/>
<g>
	<rect x="202.105" y="291.032" style="fill:#FFFFFF;" width="43.116" height="16.168"/>
	<rect x="121.263" y="323.368" style="fill:#FFFFFF;" width="269.474" height="16.168"/>
</g>
<path d="M80.842,242.526h350.316V48.505H80.842V242.526z M97.011,64.674h317.979v161.684H97.011V64.674z"/>
<polygon points="113.179,158.989 129.347,158.989 129.347,97.011 191.326,97.011 191.326,80.842 113.179,80.842 "/>
<rect x="110.484" y="172.463" style="fill:#FFFFFF;" width="21.558" height="16.168"/>
<g>
</g>
<g>
</g>
<g>
</g>
<g>
</g>
<g>
</g>
<g>
</g>
<g>
</g>
<g>
</g>
<g>
</g>
<g>
</g>
<g>
</g>
<g>
</g>
<g>
</g>
<g>
</g>
<g>
</g>
</svg>
