<?xml version="1.0" encoding="iso-8859-1"?>
<!-- Generator: Adobe Illustrator 19.0.0, SVG Export Plug-In . SVG Version: 6.00 Build 0)  -->
<svg version="1.1" id="Layer_1" xmlns="http://www.w3.org/2000/svg" xmlns:xlink="http://www.w3.org/1999/xlink" x="0px" y="0px"
	 viewBox="0 0 490 490" style="enable-background:new 0 0 490 490;" xml:space="preserve">
<g>
	<g id="XMLID_32_">
		<g>
			<rect x="105" y="125" style="fill:#FFD248;" width="280" height="100"/>
			<path style="fill:#31C0D8;" d="M420,80v320H70V80H420z M385,225V125H105v100H385z"/>
			<path style="fill:#999999;" d="M420,400v60c0,11.04-8.96,20-20,20H90c-11.04,0-20-8.96-20-20v-60H420z"/>
			<path style="fill:#999999;" d="M420,30v50H70V30c0-11.04,8.96-20,20-20h310C411.04,10,420,18.96,420,30z"/>
		</g>
		<g>
			<path d="M400,0H90C73.458,0,60,13.458,60,30v50v320v60c0,16.542,13.458,30,30,30h310c16.542,0,30-13.458,30-30v-60V80V30
				C430,13.458,416.542,0,400,0z M80,30c0-5.514,4.486-10,10-10h310c5.514,0,10,4.486,10,10v40H80V30z M410,390H80V90h330V390z
				 M410,460c0,5.514-4.486,10-10,10H90c-5.514,0-10-4.486-10-10v-50h330V460z"/>
			<rect x="215" y="430" width="60" height="20"/>
			<rect x="280" y="35" width="25" height="20"/>
			<rect x="185" y="35" width="75" height="20"/>
			<path d="M105,235h280c5.523,0,10-4.477,10-10V125c0-5.522-4.477-10-10-10H105c-5.523,0-10,4.478-10,10v100
				C95,230.523,99.477,235,105,235z M115,135h260v80H115V135z"/>
			<rect x="100" y="255" width="130" height="20"/>
			<rect x="100" y="295" width="130" height="20"/>
			<rect x="100" y="335" width="130" height="20"/>
			<rect x="260" y="255" width="130" height="20"/>
			<rect x="260" y="295" width="130" height="20"/>
			<rect x="260" y="335" width="130" height="20"/>
		</g>
	</g>
</g>
<g>
</g>
<g>
</g>
<g>
</g>
<g>
</g>
<g>
</g>
<g>
</g>
<g>
</g>
<g>
</g>
<g>
</g>
<g>
</g>
<g>
</g>
<g>
</g>
<g>
</g>
<g>
</g>
<g>
</g>
</svg>
